<svg version="1.1" id="Layer_1" xmlns="http://www.w3.org/2000/svg"
	xmlns:xlink="http://www.w3.org/1999/xlink" x="0px" y="0px"
	width="100%" viewBox="0 0 455 466" enable-background="new 0 0 455 466" xml:space="preserve">

<path fill="#1E1F1E" opacity="1.000000" stroke="none" 
	d="
M302.195343,106.270233 
	C292.601624,85.079010 292.035065,63.709126 302.253967,42.726524 
	C312.633759,21.413582 329.876068,8.333799 353.095276,3.223127 
	C354.654938,2.879841 356.134338,2.171983 357.825531,1.316843 
	C364.021149,1.000000 370.042297,1.000000 376.705994,1.316699 
	C377.879883,2.002376 378.371765,2.609784 378.948456,2.705385 
	C392.467926,4.946503 404.389343,10.690991 414.972992,19.383808 
	C412.214539,21.786068 409.602753,23.883717 406.661865,26.120079 
	C405.234009,28.638966 404.127655,31.015669 403.038910,33.400406 
	C402.152893,35.341129 401.287933,37.291458 400.029602,39.248756 
	C396.743164,41.254139 393.840729,43.248287 390.616760,45.104980 
	C371.492615,33.238560 350.896454,35.820438 338.533112,51.629681 
	C330.239441,62.234982 328.860870,74.196518 331.956177,87.117157 
	C329.061646,89.289291 326.476501,91.287666 323.530792,93.224518 
	C321.311096,94.055374 319.329895,94.760094 317.615662,95.875191 
	C312.420044,99.254906 307.327850,102.793526 302.195343,106.270233 
M330.659088,39.152519 
	C337.644196,40.793926 343.136841,37.201630 342.867950,31.059353 
	C342.670532,26.549185 340.243713,23.477762 335.917297,22.414619 
	C331.451233,21.317175 328.115814,23.392769 326.038330,27.317545 
	C323.899933,31.357399 325.234711,35.004360 330.659088,39.152519 
z"/>
<path fill="#1A1A1B" opacity="1.000000" stroke="none" 
	d="
M83.057274,431.056854 
	C81.815796,432.657166 80.914047,434.934570 79.280785,435.754028 
	C61.077335,444.887421 42.748806,453.771149 24.492981,462.800995 
	C22.615854,463.729523 20.990906,465.167877 19.124466,466.684814 
	C18.250000,467.000000 17.500000,467.000000 16.302578,466.646423 
	C11.849461,458.076233 7.889704,449.836517 3.782937,441.670746 
	C3.238330,440.587830 1.946028,439.881012 1.000001,439.000000 
	C1.000000,438.555542 1.000000,438.111115 0.999999,437.333313 
	C2.478168,436.475281 3.956339,435.950592 5.834636,435.631348 
	C8.010877,439.586548 9.883746,443.294312 11.532953,447.099030 
	C12.889030,450.227478 14.650219,450.182281 17.424915,448.758179 
	C36.931438,438.746643 56.508347,428.872253 76.297302,418.962555 
	C76.531837,418.971039 77.001030,418.984863 77.092957,419.333435 
	C79.142342,423.473633 81.099808,427.265259 83.057274,431.056854 
M33.017757,453.511353 
	C38.203617,450.895599 43.485683,448.445770 48.501858,445.537354 
	C49.633297,444.881317 49.838356,442.627533 50.469860,441.109283 
	C48.917027,440.562683 46.968655,439.128174 45.876122,439.614899 
	C39.232567,442.574371 32.717808,445.850952 26.341282,449.351807 
	C25.383228,449.877777 24.657667,452.468933 25.134809,453.496063 
	C25.593185,454.482788 27.725502,454.989288 29.174307,455.117188 
	C30.191412,455.207001 31.295834,454.307678 33.017757,453.511353 
z"/>

<path fill="#858585" opacity="1.000000" stroke="none" 
	d="
M450.113586,14.946059 
	C451.910645,17.520990 453.707703,20.095919 455.752380,22.335424 
	C456.000000,25.030594 456.000000,28.061186 456.000000,31.545891 
	C451.104919,35.064369 446.195404,38.106052 441.321594,41.203880 
	C439.272278,42.506432 437.298401,43.927643 434.767639,45.666451 
	C431.148956,48.017586 428.052826,49.997177 424.704468,51.764572 
	C422.270416,48.645203 420.096039,45.732368 417.904358,42.832645 
	C416.154358,40.517323 416.531189,38.513901 418.840454,36.888702 
	C429.254395,29.559654 439.687439,22.257744 450.113586,14.946059 
z"/>

<path fill="#1E1F1E" opacity="1.000000" stroke="none" 
	d="
M83.402443,430.964172 
	C81.099808,427.265259 79.142342,423.473633 77.354469,419.116272 
	C84.281029,415.067383 91.019844,411.548431 97.799751,408.110535 
	C105.582283,404.164246 105.575768,404.205048 102.232407,396.431061 
	C101.650574,395.078217 101.346695,393.605804 100.914444,392.188660 
	C101.679977,391.812683 102.445518,391.436737 103.681824,391.275940 
	C105.731598,394.202942 107.136765,397.042297 108.982681,399.558319 
	C109.640114,400.454407 111.366814,400.566040 112.605415,401.035767 
	C112.953140,399.777618 113.976212,398.151917 113.527435,397.327240 
	C111.902023,394.340363 109.782478,391.622345 107.849411,388.802887 
	C110.413002,387.167969 112.828842,385.531342 116.014336,387.941193 
	C116.808914,388.542267 118.920700,387.964355 120.142441,387.356415 
	C152.058411,371.474976 183.984909,355.612183 215.726913,339.388763 
	C218.168381,338.140869 220.323532,334.440430 220.813858,331.572571 
	C224.149292,312.064362 226.992844,292.472198 230.012833,272.909851 
	C235.976898,234.277267 241.982712,195.651077 247.889740,157.009781 
	C248.752792,151.364120 251.478912,147.153564 256.102325,143.908493 
	C267.000977,136.258972 277.810333,128.482269 288.701691,120.822281 
	C289.884949,119.990067 291.368683,119.585075 293.344299,119.173950 
	C295.370483,121.555046 296.765381,123.744133 297.845367,126.089981 
	C287.060516,133.632675 276.703857,141.186920 266.077209,148.340012 
	C259.917572,152.486206 256.998535,158.034790 255.912140,165.224976 
	C247.384140,221.667618 238.663025,278.081085 230.124802,334.522186 
	C229.225266,340.468445 226.664871,344.365692 221.054047,347.096527 
	C189.617462,362.396790 158.329788,378.003052 126.998116,393.518677 
	C120.059471,396.954803 119.706711,398.298218 123.849648,404.856384 
	C122.985458,406.659729 122.609138,409.313141 121.180542,410.133118 
	C108.810265,417.232971 96.250763,424.003143 83.402443,430.964172 
z"/>
<path fill="#1F201F" opacity="1.000000" stroke="none" 
	d="
M76.062759,418.954041 
	C56.508347,428.872253 36.931438,438.746643 17.424915,448.758179 
	C14.650219,450.182281 12.889030,450.227478 11.532953,447.099030 
	C9.883746,443.294312 8.010877,439.586548 6.146963,435.506866 
	C26.238213,425.191101 46.412960,415.196564 66.611443,405.250214 
	C67.446213,404.839203 68.503151,404.879395 69.818115,405.196381 
	C72.140694,410.106964 74.101723,414.530487 76.062759,418.954041 
M34.083492,434.672516 
	C36.454773,433.471283 39.097576,432.598145 41.094971,430.945160 
	C42.283398,429.961609 42.456730,427.751495 43.086441,426.092773 
	C41.522015,425.663055 39.605900,424.430939 38.451557,424.936859 
	C32.066330,427.735474 25.773809,430.790375 19.681732,434.175385 
	C18.463703,434.852142 18.252533,437.340973 17.577091,438.994263 
	C19.433908,439.363434 21.547323,440.481537 23.095867,439.950928 
	C26.679680,438.723053 29.990061,436.697113 34.083492,434.672516 
z"/>
<path fill="#737272" opacity="1.000000" stroke="none" 
	d="
M298.160278,125.933220 
	C296.765381,123.744133 295.370483,121.555046 293.736633,119.176689 
	C290.994659,115.607735 291.952545,113.174599 295.418640,111.170883 
	C297.637878,109.887978 299.661407,108.266556 301.984009,106.533569 
	C307.327850,102.793526 312.420044,99.254906 317.615662,95.875191 
	C319.329895,94.760094 321.311096,94.055374 323.638123,93.533890 
	C325.924133,96.331238 327.742249,98.757690 329.685394,101.461441 
	C329.964508,102.113228 330.118591,102.487709 329.912659,102.958870 
	C319.817352,109.842621 310.065460,116.606224 300.380890,123.464859 
	C299.667694,123.969940 299.439758,125.160248 298.780090,126.004196 
	C298.573975,125.976402 298.160278,125.933220 298.160278,125.933220 
z"/>
<path fill="#2F302F" opacity="1.000000" stroke="none" 
	d="
M76.297302,418.962524 
	C74.101723,414.530487 72.140694,410.106964 70.090271,405.333008 
	C78.269760,401.194946 86.520271,397.366211 94.822388,393.652893 
	C96.567833,392.872223 98.502922,392.515594 100.632530,392.076111 
	C101.346695,393.605804 101.650574,395.078217 102.232407,396.431061 
	C105.575768,404.205048 105.582283,404.164246 97.799751,408.110535 
	C91.019844,411.548431 84.281029,415.067383 77.262543,418.767700 
	C77.001030,418.984863 76.531837,418.971039 76.297302,418.962524 
z"/>
<path fill="#2F302F" opacity="1.000000" stroke="none" 
	d="
M107.530579,388.877869 
	C109.782478,391.622345 111.902023,394.340363 113.527435,397.327240 
	C113.976212,398.151917 112.953140,399.777618 112.605415,401.035767 
	C111.366814,400.566040 109.640114,400.454407 108.982681,399.558319 
	C107.136765,397.042297 105.731598,394.202942 103.984589,391.171509 
	C104.948296,390.218872 106.080017,389.585846 107.530579,388.877869 
z"/>
<path fill="#1E1F1E" opacity="1.000000" stroke="none" 
	d="
M424.956696,51.976772 
	C428.052826,49.997177 431.148956,48.017586 434.584900,45.956787 
	C436.615906,55.658318 439.617310,65.421516 439.763580,75.227295 
	C440.297760,111.045334 412.888000,141.519516 377.325378,146.134842 
	C354.388641,149.111572 334.640625,142.444290 317.380157,126.841232 
	C322.759552,122.324837 328.312744,118.364128 333.664581,114.147903 
	C334.840027,113.221886 335.299805,111.387421 336.384277,109.817024 
	C339.133850,107.705513 341.588257,105.748268 344.360046,103.933899 
	C354.696686,111.253494 365.634583,113.762657 377.678589,110.511841 
	C397.380127,105.194176 410.559601,83.603828 402.821228,60.966492 
	C405.468140,58.620018 407.740997,56.366802 410.289368,53.889381 
	C412.998077,53.533432 415.444916,53.519196 417.860413,53.236664 
	C420.242401,52.958050 422.592560,52.407829 424.956696,51.976772 
z"/>
<path fill="#2A2A29" opacity="1.000000" stroke="none" 
	d="
M297.845367,126.089981 
	C298.160278,125.933220 298.573975,125.976402 298.920990,126.300858 
	C300.461456,128.440704 301.654907,130.256088 302.848358,132.071487 
	C292.921143,139.041885 283.013947,146.041092 273.058624,152.971085 
	C267.708618,156.695282 264.833160,161.579208 263.892792,168.186707 
	C258.137817,208.623886 252.110138,249.022247 246.184158,289.435120 
	C243.799271,305.699127 241.247620,321.942352 239.166672,338.245422 
	C238.323105,344.854279 235.318481,349.349060 229.465134,352.247986 
	C195.467545,369.085785 161.485886,385.955688 127.500488,402.818085 
	C126.457664,403.335510 125.432961,403.889465 124.124725,404.641388 
	C119.706711,398.298218 120.059471,396.954803 126.998116,393.518677 
	C158.329788,378.003052 189.617462,362.396790 221.054047,347.096527 
	C226.664871,344.365692 229.225266,340.468445 230.124802,334.522186 
	C238.663025,278.081085 247.384140,221.667618 255.912140,165.224976 
	C256.998535,158.034790 259.917572,152.486206 266.077209,148.340012 
	C276.703857,141.186920 287.060516,133.632675 297.845367,126.089981 
z"/>
<path fill="#7F7F80" opacity="1.000000" stroke="none" 
	d="
M303.050842,132.370392 
	C301.654907,130.256088 300.461456,128.440704 299.127136,126.328644 
	C299.439758,125.160248 299.667694,123.969940 300.380890,123.464859 
	C310.065460,116.606224 319.817352,109.842621 330.160583,103.169479 
	C332.542053,105.512711 334.315582,107.742004 336.089111,109.971291 
	C335.299805,111.387421 334.840027,113.221886 333.664581,114.147903 
	C328.312744,118.364128 322.759552,122.324837 317.092712,126.658569 
	C314.381744,128.725189 312.021698,130.855972 309.271240,132.168915 
	C307.572693,132.979691 305.279541,132.544907 303.050842,132.370392 
z"/>
<path fill="#7F7F80" opacity="1.000000" stroke="none" 
	d="
M424.704468,51.764576 
	C422.592560,52.407829 420.242401,52.958050 417.860413,53.236664 
	C415.444916,53.519196 412.998077,53.533432 409.987183,53.739792 
	C407.955444,51.828911 406.501495,49.843414 405.247803,47.601616 
	C407.362610,45.760208 409.128418,43.933357 411.224609,42.643345 
	C414.914307,40.372711 414.611481,38.048458 412.284851,34.902733 
	C410.239136,32.136860 408.734558,28.970737 406.990967,25.981373 
	C409.602753,23.883717 412.214539,21.786068 414.972992,19.383808 
	C420.951294,14.966029 426.985687,11.105732 432.542419,6.649806 
	C436.178955,3.733654 439.183716,3.789082 442.351898,6.767106 
	C444.930206,9.190681 447.335052,11.798764 449.965210,14.635544 
	C439.687439,22.257744 429.254395,29.559654 418.840454,36.888702 
	C416.531189,38.513901 416.154358,40.517323 417.904358,42.832645 
	C420.096039,45.732368 422.270416,48.645203 424.704468,51.764576 
z"/>
<path fill="#6F6E6E" opacity="1.000000" stroke="none" 
	d="
M332.265564,86.943390 
	C328.860870,74.196518 330.239441,62.234982 338.533112,51.629681 
	C350.896454,35.820438 371.492615,33.238560 390.792969,45.369881 
	C393.383148,47.909966 395.475525,50.047695 397.617401,52.398689 
	C397.666901,52.611950 397.752380,53.041607 397.490448,53.202568 
	C396.462097,54.285969 395.695679,55.208408 394.727539,56.054222 
	C394.525787,55.977604 394.115540,55.843582 393.982056,55.538303 
	C382.734894,40.625237 362.650299,37.693264 348.057587,48.548428 
	C334.017639,58.992397 330.790344,79.101837 340.933929,93.298286 
	C340.954163,93.534157 340.979034,94.006989 340.635010,94.078156 
	C339.156555,94.443176 338.022064,94.737030 336.641174,94.804886 
	C335.018372,92.033730 333.641968,89.488556 332.265564,86.943390 
z"/>
<path fill="#737272" opacity="1.000000" stroke="none" 
	d="
M406.661865,26.120087 
	C408.734558,28.970737 410.239136,32.136860 412.284851,34.902733 
	C414.611481,38.048458 414.914307,40.372711 411.224609,42.643345 
	C409.128418,43.933357 407.362610,45.760208 405.065002,47.580208 
	C404.681946,47.815109 404.318024,47.759594 404.174194,47.447281 
	C402.824768,44.502491 401.619202,41.870014 400.413635,39.237534 
	C401.287933,37.291458 402.152893,35.341129 403.038910,33.400406 
	C404.127655,31.015669 405.234009,28.638966 406.661865,26.120087 
z"/>
<path fill="#2A2A29" opacity="1.000000" stroke="none" 
	d="
M330.312866,38.979374 
	C325.234711,35.004360 323.899933,31.357399 326.038330,27.317545 
	C328.115814,23.392769 331.451233,21.317175 335.917297,22.414619 
	C340.243713,23.477762 342.670532,26.549185 342.867950,31.059353 
	C343.136841,37.201630 337.644196,40.793926 330.312866,38.979374 
M329.591400,34.891586 
	C334.397064,38.055897 339.186035,37.025654 339.609741,32.398495 
	C339.798462,30.337658 338.578369,27.339998 336.974548,26.169407 
	C335.604340,25.169369 332.334290,25.451033 330.683075,26.451105 
	C327.841675,28.172045 327.271698,31.197964 329.591400,34.891586 
z"/>
<path fill="#2F302F" opacity="1.000000" stroke="none" 
	d="
M331.956177,87.117149 
	C333.641968,89.488556 335.018372,92.033730 336.729431,95.101425 
	C337.228699,96.002205 337.393341,96.380455 337.194733,96.882843 
	C334.407776,98.399361 331.984070,99.791748 329.560364,101.184143 
	C327.742249,98.757690 325.924133,96.331238 323.998688,93.595413 
	C326.476501,91.287666 329.061646,89.289291 331.956177,87.117149 
z"/>
<path fill="#2F302F" opacity="1.000000" stroke="none" 
	d="
M400.029602,39.248764 
	C401.619202,41.870014 402.824768,44.502491 403.851746,47.623688 
	C401.638062,49.470081 399.602966,50.827755 397.567902,52.185429 
	C395.475525,50.047695 393.383148,47.909966 391.114532,45.507336 
	C393.840729,43.248287 396.743164,41.254139 400.029602,39.248764 
z"/>
<path fill="#5E5E5E" opacity="1.000000" stroke="none" 
	d="
M32.689510,453.680725 
	C31.295834,454.307678 30.191412,455.207001 29.174307,455.117188 
	C27.725502,454.989288 25.593185,454.482788 25.134809,453.496063 
	C24.657667,452.468933 25.383228,449.877777 26.341282,449.351807 
	C32.717808,445.850952 39.232567,442.574371 45.876122,439.614899 
	C46.968655,439.128174 48.917027,440.562683 50.469864,441.109283 
	C49.838356,442.627533 49.633297,444.881317 48.501858,445.537354 
	C43.485683,448.445770 38.203617,450.895599 32.689510,453.680725 
z"/>
<path fill="#858585" opacity="1.000000" stroke="none" 
	d="
M33.747406,434.833649 
	C29.990061,436.697113 26.679680,438.723053 23.095867,439.950928 
	C21.547323,440.481537 19.433908,439.363434 17.577095,438.994263 
	C18.252533,437.340973 18.463703,434.852142 19.681732,434.175385 
	C25.773809,430.790375 32.066330,427.735474 38.451557,424.936859 
	C39.605900,424.430939 41.522015,425.663055 43.086433,426.092773 
	C42.456730,427.751495 42.283398,429.961609 41.094971,430.945160 
	C39.097576,432.598145 36.454773,433.471283 33.747406,434.833649 
z"/>
<path fill="#2A2A29" opacity="1.000000" stroke="none" 
	d="
M329.685394,101.461441 
	C331.984070,99.791748 334.407776,98.399361 337.412964,97.106613 
	C340.010529,99.401184 342.026611,101.596115 344.042664,103.791031 
	C341.588257,105.748268 339.133850,107.705513 336.384277,109.817024 
	C334.315582,107.742004 332.542053,105.512711 330.520599,103.072800 
	C330.118591,102.487709 329.964508,102.113228 329.685394,101.461441 
z"/>
<path fill="#7A7A7B" opacity="1.000000" stroke="none" 
	d="
M344.360046,103.933907 
	C342.026611,101.596115 340.010529,99.401184 337.776245,96.982483 
	C337.393341,96.380455 337.228699,96.002205 336.975830,95.327423 
	C338.022064,94.737030 339.156555,94.443176 340.872894,94.310944 
	C356.181854,111.331497 378.366882,112.204391 392.463776,96.567909 
	C400.124146,88.070908 404.622406,72.194954 394.929291,56.130848 
	C395.695679,55.208408 396.462097,54.285969 397.715912,53.460960 
	C399.617920,56.058838 401.032562,58.559292 402.447144,61.059750 
	C410.559601,83.603828 397.380127,105.194176 377.678589,110.511841 
	C365.634583,113.762657 354.696686,111.253494 344.360046,103.933907 
z"/>
<path fill="#2A2A29" opacity="1.000000" stroke="none" 
	d="
M402.821228,60.966492 
	C401.032562,58.559292 399.617920,56.058838 397.977844,53.299995 
	C397.752380,53.041607 397.666901,52.611950 397.617401,52.398689 
	C399.602966,50.827755 401.638062,49.470081 403.995575,47.935997 
	C404.318024,47.759594 404.681946,47.815109 404.864746,47.836517 
	C406.501495,49.843414 407.955444,51.828911 409.711609,53.963997 
	C407.740997,56.366802 405.468140,58.620018 402.821228,60.966492 
z"/>
<path fill="#2F302F" opacity="1.000000" stroke="none" 
	d="
M394.727539,56.054230 
	C404.622406,72.194954 400.124146,88.070908 392.463776,96.567909 
	C378.366882,112.204391 356.181854,111.331497 341.216919,94.239777 
	C340.979034,94.006989 340.954163,93.534157 341.227173,93.117027 
	C344.346558,91.131393 347.192932,89.562897 350.325317,88.164360 
	C359.907013,97.582489 371.948761,98.931084 381.129181,91.752136 
	C389.805511,84.967384 391.758087,72.976166 385.796448,62.823006 
	C385.790222,62.594482 385.743744,62.139641 386.064606,61.979530 
	C388.962158,59.827477 391.538849,57.835529 394.115540,55.843582 
	C394.115540,55.843582 394.525787,55.977604 394.727539,56.054230 
z"/>
<path fill="#1F201F" opacity="1.000000" stroke="none" 
	d="
M350.039307,87.994392 
	C347.192932,89.562897 344.346558,91.131393 341.206940,92.881157 
	C330.790344,79.101837 334.017639,58.992397 348.057587,48.548428 
	C362.650299,37.693264 382.734894,40.625237 393.982056,55.538300 
	C391.538849,57.835529 388.962158,59.827477 385.802765,61.784416 
	C375.850159,51.794716 364.158417,50.200367 354.454956,57.554123 
	C345.602325,64.263062 343.508118,76.186157 349.533691,86.470253 
	C349.771729,87.181114 349.905518,87.587753 350.039307,87.994392 
z"/>
<path fill="#5E5E5E" opacity="1.000000" stroke="none" 
	d="
M329.355560,34.592682 
	C327.271698,31.197964 327.841675,28.172045 330.683075,26.451105 
	C332.334290,25.451033 335.604340,25.169369 336.974548,26.169407 
	C338.578369,27.339998 339.798462,30.337658 339.609741,32.398495 
	C339.186035,37.025654 334.397064,38.055897 329.355560,34.592682 
z"/>
<path fill="#7F7F80" opacity="1.000000" stroke="none" 
	d="
M350.325317,88.164360 
	C349.905518,87.587753 349.771729,87.181114 349.868927,86.296494 
	C356.900208,81.321991 363.653351,76.751907 370.516479,72.353462 
	C375.536957,69.135925 380.702026,66.144012 385.802643,63.051529 
	C391.758087,72.976166 389.805511,84.967384 381.129181,91.752136 
	C371.948761,98.931084 359.907013,97.582489 350.325317,88.164360 
z"/>
<path fill="#737272" opacity="1.000000" stroke="none" 
	d="
M385.796448,62.823006 
	C380.702026,66.144012 375.536957,69.135925 370.516479,72.353462 
	C363.653351,76.751907 356.900208,81.321991 349.764679,85.992264 
	C343.508118,76.186157 345.602325,64.263062 354.454956,57.554123 
	C364.158417,50.200367 375.850159,51.794716 385.481903,61.944527 
	C385.743744,62.139641 385.790222,62.594482 385.796448,62.823006 
z"/>
</svg>